<?xml version="1.0" standalone="no"?>
<!DOCTYPE svg PUBLIC "-//W3C//DTD SVG 20010904//EN"
 "http://www.w3.org/TR/2001/REC-SVG-20010904/DTD/svg10.dtd">
<svg version="1.0" xmlns="http://www.w3.org/2000/svg"
 width="574.000000pt" height="574.000000pt" viewBox="0 0 574.000000 574.000000"
 preserveAspectRatio="xMidYMid meet">
<metadata>
Created by potrace 1.14, written by Peter Selinger 2001-2017
</metadata>
<g transform="translate(0.000000,574.000000) scale(0.100000,-0.100000)"
fill="#000000" stroke="none">
<path d="M1529 4657 c-439 -102 -456 -109 -506 -194 -28 -48 -28 -49 -27 -218
6 -655 245 -1346 655 -1896 555 -744 1366 -1218 2283 -1334 181 -23 424 -31
480 -15 54 15 117 66 140 113 9 19 57 212 107 428 96 417 100 447 64 522 -39
83 -81 107 -520 295 -448 192 -481 202 -568 168 -53 -20 -76 -44 -262 -271
-81 -99 -151 -182 -156 -183 -14 -6 -234 123 -343 201 -192 136 -360 293 -509
476 -80 97 -212 295 -264 397 l-42 81 210 167 c244 196 263 219 263 325 0 63
-8 84 -181 486 -188 436 -215 485 -285 521 -69 36 -119 30 -539 -69z"/>
</g>
</svg>
