<?xml version="1.0" standalone="no"?>
<!DOCTYPE svg PUBLIC "-//W3C//DTD SVG 20010904//EN"
 "http://www.w3.org/TR/2001/REC-SVG-20010904/DTD/svg10.dtd">
<svg version="1.0" xmlns="http://www.w3.org/2000/svg"
 width="700.000000pt" height="700.000000pt" viewBox="0 0 700.000000 700.000000"
 preserveAspectRatio="xMidYMid meet">
<metadata>
Created by potrace 1.14, written by Peter Selinger 2001-2017
</metadata>
<g transform="translate(0.000000,700.000000) scale(0.100000,-0.100000)"
fill="#000000" stroke="none">
<path d="M1875 5680 c-258 -60 -486 -116 -506 -125 -47 -22 -105 -78 -132
-129 -21 -38 -22 -54 -21 -231 3 -457 99 -935 281 -1395 374 -945 1097 -1726
2013 -2175 536 -262 1128 -406 1685 -409 167 -1 194 1 225 18 48 25 108 84
130 127 10 20 69 254 131 520 122 532 124 541 75 636 -50 100 -71 111 -624
349 -459 197 -513 218 -574 222 -74 5 -126 -8 -178 -46 -19 -13 -125 -135
-235 -269 -110 -134 -205 -248 -211 -253 -14 -12 -210 96 -369 204 -180 121
-304 224 -465 386 -236 235 -393 447 -558 751 l-41 75 257 207 c168 134 266
220 284 248 33 50 52 133 43 186 -4 21 -107 272 -228 558 -212 497 -224 522
-272 571 -56 57 -121 84 -194 83 -25 0 -257 -49 -516 -109z"/>
</g>
</svg>
