<?xml version="1.0" standalone="no"?>
<!DOCTYPE svg PUBLIC "-//W3C//DTD SVG 20010904//EN"
 "http://www.w3.org/TR/2001/REC-SVG-20010904/DTD/svg10.dtd">
<svg version="1.0" xmlns="http://www.w3.org/2000/svg"
 width="700.000000pt" height="700.000000pt" viewBox="0 0 700.000000 700.000000"
 preserveAspectRatio="xMidYMid meet">
<metadata>
Created by potrace 1.14, written by Peter Selinger 2001-2017
</metadata>
<g transform="translate(0.000000,700.000000) scale(0.100000,-0.100000)"
fill="#000000" stroke="none">
<path d="M2245 5764 c-55 -13 -111 -26 -125 -29 -14 -2 -92 -20 -175 -40 -82
-19 -159 -37 -170 -39 -11 -2 -58 -13 -105 -25 -47 -11 -96 -22 -110 -25 -149
-28 -217 -55 -269 -108 -69 -70 -76 -95 -76 -278 1 -150 9 -320 20 -381 2 -13
7 -46 10 -74 24 -209 96 -517 180 -770 173 -521 481 -1042 855 -1448 90 -98
221 -228 301 -297 41 -36 76 -67 79 -70 3 -3 39 -33 80 -66 339 -275 751 -506
1175 -661 111 -41 357 -116 415 -127 14 -2 63 -13 110 -24 85 -20 225 -44 330
-57 30 -4 63 -9 73 -11 54 -10 232 -19 377 -19 183 0 208 7 278 76 52 51 72
101 107 262 8 35 24 106 45 192 10 44 47 202 80 350 68 299 71 335 26 424 -49
96 -85 118 -446 271 -107 45 -213 91 -235 100 -22 10 -137 60 -254 110 -232
98 -280 109 -366 80 -75 -25 -96 -44 -223 -200 -42 -52 -79 -97 -82 -100 -3
-3 -43 -52 -90 -110 -47 -58 -96 -117 -109 -132 l-23 -27 -72 38 c-482 257
-868 608 -1160 1054 -67 101 -180 297 -188 324 -2 9 191 171 436 366 104 82
141 148 140 248 -1 62 -11 89 -225 590 -214 500 -226 526 -274 575 -87 87
-164 101 -340 58z"/>
</g>
</svg>
